<?xml version="1.0" encoding="UTF-8"?><svg xmlns="http://www.w3.org/2000/svg" xmlns:xlink="http://www.w3.org/1999/xlink" fill-opacity="1" color-rendering="auto" color-interpolation="auto" text-rendering="auto" stroke="black" stroke-linecap="square" width="535" stroke-miterlimit="10" shape-rendering="auto" stroke-opacity="1" fill="black" stroke-dasharray="none" font-weight="normal" stroke-width="1" height="965" font-family="'Dialog'" font-style="normal" stroke-linejoin="miter" font-size="12px" stroke-dashoffset="0" image-rendering="auto">
  <!--Generated by ySVG 2.5-->
  <defs id="genericDefs"/>
  <g>
    <defs id="defs1">
      <clipPath clipPathUnits="userSpaceOnUse" id="clipPath1">
        <path d="M0 0 L535 0 L535 965 L0 965 L0 0 Z"/>
      </clipPath>
      <clipPath clipPathUnits="userSpaceOnUse" id="clipPath2">
        <path d="M227 -9 L762 -9 L762 956 L227 956 L227 -9 Z"/>
      </clipPath>
    </defs>
    <g fill="white" text-rendering="geometricPrecision" shape-rendering="geometricPrecision" transform="translate(-227,9)" stroke="white">
      <rect x="227" width="535" height="965" y="-9" clip-path="url(#clipPath2)" stroke="none"/>
    </g>
    <g text-rendering="geometricPrecision" shape-rendering="geometricPrecision" transform="matrix(1,0,0,1,-227,9)">
      <circle r="3.4" clip-path="url(#clipPath2)" cx="540.5964" cy="316.6317" stroke="none"/>
      <circle stroke-linecap="butt" clip-path="url(#clipPath2)" fill="none" r="3.4" cx="540.5964" cy="316.6317" stroke-miterlimit="1.45"/>
      <circle r="3.4" clip-path="url(#clipPath2)" cx="540.5964" cy="108.3455" stroke="none"/>
      <circle stroke-linecap="butt" clip-path="url(#clipPath2)" fill="none" r="3.4" cx="540.5964" cy="108.3455" stroke-miterlimit="1.45"/>
      <rect x="269.5964" y="6.5391" clip-path="url(#clipPath2)" fill="rgb(245,245,245)" width="239.6036" rx="4" ry="4" height="197.4609" stroke="none"/>
      <rect x="269.5964" y="6.5391" clip-path="url(#clipPath2)" fill="rgb(235,235,235)" width="239.6036" height="21.4609" stroke="none"/>
    </g>
    <g font-size="15px" stroke-linecap="butt" transform="matrix(1,0,0,1,-227,9)" text-rendering="geometricPrecision" font-family="sans-serif" shape-rendering="geometricPrecision" stroke-miterlimit="1.45">
      <text x="452.5833" xml:space="preserve" y="22.4624" clip-path="url(#clipPath2)" stroke="none">Header</text>
      <rect x="269.5964" y="6.5391" clip-path="url(#clipPath2)" fill="none" width="239.6036" stroke-dasharray="6,2" rx="4" ry="4" height="197.4609"/>
    </g>
    <g fill="rgb(204,255,204)" text-rendering="geometricPrecision" shape-rendering="geometricPrecision" transform="matrix(1,0,0,1,-227,9)" stroke="rgb(204,255,204)">
      <rect x="297" width="186" height="18" y="43" clip-path="url(#clipPath2)" stroke="none"/>
    </g>
    <g text-rendering="geometricPrecision" stroke-miterlimit="1.45" shape-rendering="geometricPrecision" font-family="sans-serif" transform="matrix(1,0,0,1,-227,9)" stroke-linecap="butt">
      <text x="344.5898" xml:space="preserve" y="56.1543" clip-path="url(#clipPath2)" stroke="none">Main SIgnature</text>
      <rect fill="none" x="297" width="186" height="18" y="43" clip-path="url(#clipPath2)"/>
    </g>
    <g fill="rgb(255,204,0)" text-rendering="geometricPrecision" shape-rendering="geometricPrecision" transform="matrix(1,0,0,1,-227,9)" stroke="rgb(255,204,0)">
      <rect x="297" width="186" height="37" y="61" clip-path="url(#clipPath2)" stroke="none"/>
    </g>
    <g text-rendering="geometricPrecision" stroke-miterlimit="1.45" shape-rendering="geometricPrecision" font-family="sans-serif" transform="matrix(1,0,0,1,-227,9)" stroke-linecap="butt">
      <text x="384.2783" xml:space="preserve" y="83.6543" clip-path="url(#clipPath2)" stroke="none">...</text>
      <rect fill="none" x="297" width="186" height="37" y="61" clip-path="url(#clipPath2)"/>
    </g>
    <g fill="rgb(255,255,153)" text-rendering="geometricPrecision" shape-rendering="geometricPrecision" transform="matrix(1,0,0,1,-227,9)" stroke="rgb(255,255,153)">
      <rect x="297" width="186" height="18" y="98" clip-path="url(#clipPath2)" stroke="none"/>
    </g>
    <g text-rendering="geometricPrecision" stroke-miterlimit="1.45" shape-rendering="geometricPrecision" font-family="sans-serif" transform="matrix(1,0,0,1,-227,9)" stroke-linecap="butt">
      <text x="344.4961" xml:space="preserve" y="111.1543" clip-path="url(#clipPath2)" stroke="none">Exheader Hash</text>
      <rect fill="none" x="297" width="186" height="18" y="98" clip-path="url(#clipPath2)"/>
    </g>
    <g fill="rgb(255,204,0)" text-rendering="geometricPrecision" shape-rendering="geometricPrecision" transform="matrix(1,0,0,1,-227,9)" stroke="rgb(255,204,0)">
      <rect x="297" width="186" height="37" y="116" clip-path="url(#clipPath2)" stroke="none"/>
    </g>
    <g text-rendering="geometricPrecision" stroke-miterlimit="1.45" shape-rendering="geometricPrecision" font-family="sans-serif" transform="matrix(1,0,0,1,-227,9)" stroke-linecap="butt">
      <text x="384.2783" xml:space="preserve" y="138.6543" clip-path="url(#clipPath2)" stroke="none">...</text>
      <rect fill="none" x="297" width="186" height="37" y="116" clip-path="url(#clipPath2)"/>
    </g>
    <g fill="rgb(255,255,153)" text-rendering="geometricPrecision" shape-rendering="geometricPrecision" transform="matrix(1,0,0,1,-227,9)" stroke="rgb(255,255,153)">
      <rect x="297" width="186" height="18" y="153" clip-path="url(#clipPath2)" stroke="none"/>
    </g>
    <g text-rendering="geometricPrecision" stroke-miterlimit="1.45" shape-rendering="geometricPrecision" font-family="sans-serif" transform="matrix(1,0,0,1,-227,9)" stroke-linecap="butt">
      <text x="354.6826" xml:space="preserve" y="166.1543" clip-path="url(#clipPath2)" stroke="none">ExeFS Hash</text>
      <rect fill="none" x="297" width="186" height="18" y="153" clip-path="url(#clipPath2)"/>
    </g>
    <g fill="rgb(255,255,153)" text-rendering="geometricPrecision" shape-rendering="geometricPrecision" transform="matrix(1,0,0,1,-227,9)" stroke="rgb(255,255,153)">
      <rect x="297" width="186" height="18" y="171" clip-path="url(#clipPath2)" stroke="none"/>
    </g>
    <g text-rendering="geometricPrecision" stroke-miterlimit="1.45" shape-rendering="geometricPrecision" font-family="sans-serif" transform="matrix(1,0,0,1,-227,9)" stroke-linecap="butt">
      <text x="352.0312" xml:space="preserve" y="184.1543" clip-path="url(#clipPath2)" stroke="none">RomFS Hash</text>
      <rect fill="none" x="297" width="186" height="18" y="171" clip-path="url(#clipPath2)"/>
    </g>
    <g text-rendering="geometricPrecision" stroke-miterlimit="1.45" shape-rendering="geometricPrecision" transform="matrix(1,0,0,1,-227,9)" stroke-linecap="butt">
      <path fill="none" d="M489.1 61 L494.2 61 L494.2 189 L489.1 189" clip-path="url(#clipPath2)"/>
    </g>
    <g text-rendering="geometricPrecision" stroke-miterlimit="1.45" shape-rendering="geometricPrecision" transform="matrix(1,0,0,1,-227,9)" stroke-linecap="butt">
      <path fill="none" d="M483 52 L540.5964 52 L540.5964 104.9455" clip-path="url(#clipPath2)"/>
      <path fill="none" d="M540.5964 111.7455 L540.5964 125 L502.1846 125" clip-path="url(#clipPath2)"/>
      <path d="M494.1846 125 L506.1846 130 L503.1846 125 L506.1846 120 Z" clip-path="url(#clipPath2)" stroke="none"/>
    </g>
    <g fill="rgb(245,245,245)" text-rendering="geometricPrecision" shape-rendering="geometricPrecision" transform="matrix(1,0,0,1,-227,9)" stroke="rgb(245,245,245)">
      <rect x="269.5964" y="220.25" clip-path="url(#clipPath2)" width="239.6036" rx="4" ry="4" height="141.4609" stroke="none"/>
      <rect x="269.5964" y="220.25" clip-path="url(#clipPath2)" fill="rgb(235,235,235)" width="239.6036" height="21.4609" stroke="none"/>
    </g>
    <g font-size="15px" stroke-linecap="butt" transform="matrix(1,0,0,1,-227,9)" text-rendering="geometricPrecision" font-family="sans-serif" shape-rendering="geometricPrecision" stroke-miterlimit="1.45">
      <text x="434.2288" xml:space="preserve" y="236.1733" clip-path="url(#clipPath2)" stroke="none">ExHeader</text>
      <rect x="269.5964" y="220.25" clip-path="url(#clipPath2)" fill="none" width="239.6036" stroke-dasharray="6,2" rx="4" ry="4" height="141.4609"/>
    </g>
    <g fill="rgb(255,204,0)" text-rendering="geometricPrecision" shape-rendering="geometricPrecision" transform="matrix(1,0,0,1,-227,9)" stroke="rgb(255,204,0)">
      <rect x="297" width="186" height="18" y="256.7109" clip-path="url(#clipPath2)" stroke="none"/>
    </g>
    <g text-rendering="geometricPrecision" stroke-miterlimit="1.45" shape-rendering="geometricPrecision" font-family="sans-serif" transform="matrix(1,0,0,1,-227,9)" stroke-linecap="butt">
      <text x="380.2324" xml:space="preserve" y="269.8652" clip-path="url(#clipPath2)" stroke="none">SCI</text>
      <rect fill="none" x="297" width="186" height="18" y="256.7109" clip-path="url(#clipPath2)"/>
    </g>
    <g fill="rgb(255,204,0)" text-rendering="geometricPrecision" shape-rendering="geometricPrecision" transform="matrix(1,0,0,1,-227,9)" stroke="rgb(255,204,0)">
      <rect x="297" width="186" height="18" y="274.7109" clip-path="url(#clipPath2)" stroke="none"/>
    </g>
    <g text-rendering="geometricPrecision" stroke-miterlimit="1.45" shape-rendering="geometricPrecision" font-family="sans-serif" transform="matrix(1,0,0,1,-227,9)" stroke-linecap="butt">
      <text x="374.2119" xml:space="preserve" y="287.8652" clip-path="url(#clipPath2)" stroke="none">ACI 1</text>
      <rect fill="none" x="297" width="186" height="18" y="274.7109" clip-path="url(#clipPath2)"/>
    </g>
    <g fill="rgb(204,255,204)" text-rendering="geometricPrecision" shape-rendering="geometricPrecision" transform="matrix(1,0,0,1,-227,9)" stroke="rgb(204,255,204)">
      <rect x="297" width="186" height="18" y="292.7109" clip-path="url(#clipPath2)" stroke="none"/>
    </g>
    <g text-rendering="geometricPrecision" stroke-miterlimit="1.45" shape-rendering="geometricPrecision" font-family="sans-serif" transform="matrix(1,0,0,1,-227,9)" stroke-linecap="butt">
      <text x="360.8203" xml:space="preserve" y="305.8652" clip-path="url(#clipPath2)" stroke="none">SIgnature</text>
      <rect fill="none" x="297" width="186" height="18" y="292.7109" clip-path="url(#clipPath2)"/>
    </g>
    <g fill="rgb(153,204,255)" text-rendering="geometricPrecision" shape-rendering="geometricPrecision" transform="matrix(1,0,0,1,-227,9)" stroke="rgb(153,204,255)">
      <rect x="297" width="186" height="18" y="310.7109" clip-path="url(#clipPath2)" stroke="none"/>
    </g>
    <g text-rendering="geometricPrecision" stroke-miterlimit="1.45" shape-rendering="geometricPrecision" font-family="sans-serif" transform="matrix(1,0,0,1,-227,9)" stroke-linecap="butt">
      <text x="339.7676" xml:space="preserve" y="323.8652" clip-path="url(#clipPath2)" stroke="none">NCCH Public Key</text>
      <rect fill="none" x="297" width="186" height="18" y="310.7109" clip-path="url(#clipPath2)"/>
    </g>
    <g fill="rgb(255,204,0)" text-rendering="geometricPrecision" shape-rendering="geometricPrecision" transform="matrix(1,0,0,1,-227,9)" stroke="rgb(255,204,0)">
      <rect x="297" width="186" height="18" y="328.7109" clip-path="url(#clipPath2)" stroke="none"/>
    </g>
    <g text-rendering="geometricPrecision" stroke-miterlimit="1.45" shape-rendering="geometricPrecision" font-family="sans-serif" transform="matrix(1,0,0,1,-227,9)" stroke-linecap="butt">
      <text x="374.2119" xml:space="preserve" y="341.8652" clip-path="url(#clipPath2)" stroke="none">ACI 2</text>
      <rect fill="none" x="297" width="186" height="18" y="328.7109" clip-path="url(#clipPath2)"/>
    </g>
    <g text-rendering="geometricPrecision" stroke-miterlimit="1.45" shape-rendering="geometricPrecision" transform="matrix(1,0,0,1,-227,9)" stroke-linecap="butt">
      <path fill="none" d="M289.6964 256.7109 L284.5964 256.7109 L284.5964 292.7109 L289.6964 292.7109" clip-path="url(#clipPath2)"/>
    </g>
    <g text-rendering="geometricPrecision" stroke-miterlimit="1.45" shape-rendering="geometricPrecision" transform="matrix(1,0,0,1,-227,9)" stroke-linecap="butt">
      <path fill="none" d="M489.1 310.7109 L494.2 310.7109 L494.2 346.7109 L489.1 346.7109" clip-path="url(#clipPath2)"/>
    </g>
    <g text-rendering="geometricPrecision" stroke-miterlimit="1.45" shape-rendering="geometricPrecision" transform="matrix(1,0,0,1,-227,9)" stroke-linecap="butt">
      <path fill="none" d="M483 301.7109 L540.5964 301.7109 L540.5964 313.2317" clip-path="url(#clipPath2)"/>
      <path fill="none" d="M483 319.7109 L518.96 319.7109 L518.96 108.3455 L529.1964 108.3455" clip-path="url(#clipPath2)"/>
      <path d="M537.1964 108.3455 L525.1964 103.3455 L528.1964 108.3455 L525.1964 113.3455 Z" clip-path="url(#clipPath2)" stroke="none"/>
      <path fill="none" d="M297 107 L242.9964 107 L242.9964 274.7109 L276.6224 274.7109" clip-path="url(#clipPath2)"/>
      <path d="M284.6224 274.7109 L272.6224 269.7109 L275.6224 274.7109 L272.6224 279.7109 Z" clip-path="url(#clipPath2)" stroke="none"/>
      <path fill="none" d="M540.5964 320.0317 L540.5964 328.7109 L502.1846 328.7109" clip-path="url(#clipPath2)"/>
      <path d="M494.1846 328.7109 L506.1846 333.7109 L503.1846 328.7109 L506.1846 323.7109 Z" clip-path="url(#clipPath2)" stroke="none"/>
    </g>
    <g fill="rgb(245,245,245)" text-rendering="geometricPrecision" shape-rendering="geometricPrecision" transform="matrix(1,0,0,1,-227,9)" stroke="rgb(245,245,245)">
      <rect x="269.5964" y="375.9922" clip-path="url(#clipPath2)" width="239.6036" rx="4" ry="4" height="272.4297" stroke="none"/>
      <rect x="269.5964" y="375.9922" clip-path="url(#clipPath2)" fill="rgb(235,235,235)" width="239.6036" height="21.4609" stroke="none"/>
    </g>
    <g font-size="15px" stroke-linecap="butt" transform="matrix(1,0,0,1,-227,9)" text-rendering="geometricPrecision" font-family="sans-serif" shape-rendering="geometricPrecision" stroke-miterlimit="1.45">
      <text x="461.4676" xml:space="preserve" y="391.9155" clip-path="url(#clipPath2)" stroke="none">ExeFS</text>
      <rect x="269.5964" y="375.9922" clip-path="url(#clipPath2)" fill="none" width="239.6036" stroke-dasharray="6,2" rx="4" ry="4" height="272.4297"/>
    </g>
    <g fill="rgb(255,204,0)" text-rendering="geometricPrecision" shape-rendering="geometricPrecision" transform="matrix(1,0,0,1,-227,9)" stroke="rgb(255,204,0)">
      <rect x="297" width="186" height="30" y="413.4219" clip-path="url(#clipPath2)" stroke="none"/>
    </g>
    <g text-rendering="geometricPrecision" stroke-miterlimit="1.45" shape-rendering="geometricPrecision" font-family="sans-serif" transform="matrix(1,0,0,1,-227,9)" stroke-linecap="butt">
      <text x="368.1533" xml:space="preserve" y="425.5918" clip-path="url(#clipPath2)" stroke="none">Header</text>
      <text x="384.2783" xml:space="preserve" y="439.5605" clip-path="url(#clipPath2)" stroke="none">...</text>
      <rect fill="none" x="297" width="186" height="30" y="413.4219" clip-path="url(#clipPath2)"/>
    </g>
    <g fill="rgb(255,255,153)" text-rendering="geometricPrecision" shape-rendering="geometricPrecision" transform="matrix(1,0,0,1,-227,9)" stroke="rgb(255,255,153)">
      <rect x="297" width="186" height="18" y="443.4219" clip-path="url(#clipPath2)" stroke="none"/>
    </g>
    <g text-rendering="geometricPrecision" stroke-miterlimit="1.45" shape-rendering="geometricPrecision" font-family="sans-serif" transform="matrix(1,0,0,1,-227,9)" stroke-linecap="butt">
      <text x="356.7744" xml:space="preserve" y="456.5762" clip-path="url(#clipPath2)" stroke="none">File 2 Hash</text>
      <rect fill="none" x="297" width="186" height="18" y="443.4219" clip-path="url(#clipPath2)"/>
    </g>
    <g fill="rgb(255,255,153)" text-rendering="geometricPrecision" shape-rendering="geometricPrecision" transform="matrix(1,0,0,1,-227,9)" stroke="rgb(255,255,153)">
      <rect x="297" width="186" height="18" y="461.4219" clip-path="url(#clipPath2)" stroke="none"/>
    </g>
    <g text-rendering="geometricPrecision" stroke-miterlimit="1.45" shape-rendering="geometricPrecision" font-family="sans-serif" transform="matrix(1,0,0,1,-227,9)" stroke-linecap="butt">
      <text x="356.7744" xml:space="preserve" y="474.5762" clip-path="url(#clipPath2)" stroke="none">File 1 Hash</text>
      <rect fill="none" x="297" width="186" height="18" y="461.4219" clip-path="url(#clipPath2)"/>
    </g>
    <g fill="rgb(255,255,153)" text-rendering="geometricPrecision" shape-rendering="geometricPrecision" transform="matrix(1,0,0,1,-227,9)" stroke="rgb(255,255,153)">
      <rect x="297" width="186" height="18" y="479.4219" clip-path="url(#clipPath2)" stroke="none"/>
    </g>
    <g text-rendering="geometricPrecision" stroke-miterlimit="1.45" shape-rendering="geometricPrecision" font-family="sans-serif" transform="matrix(1,0,0,1,-227,9)" stroke-linecap="butt">
      <text x="356.7744" xml:space="preserve" y="492.5762" clip-path="url(#clipPath2)" stroke="none">File 0 Hash</text>
      <rect fill="none" x="297" width="186" height="18" y="479.4219" clip-path="url(#clipPath2)"/>
    </g>
    <g fill="rgb(255,204,0)" text-rendering="geometricPrecision" shape-rendering="geometricPrecision" transform="matrix(1,0,0,1,-227,9)" stroke="rgb(255,204,0)">
      <rect x="297" width="186" height="30" y="497.4219" clip-path="url(#clipPath2)" stroke="none"/>
    </g>
    <g text-rendering="geometricPrecision" stroke-miterlimit="1.45" shape-rendering="geometricPrecision" font-family="sans-serif" transform="matrix(1,0,0,1,-227,9)" stroke-linecap="butt">
      <text x="373.7988" xml:space="preserve" y="516.5762" clip-path="url(#clipPath2)" stroke="none">File 0</text>
      <rect fill="none" x="297" width="186" height="30" y="497.4219" clip-path="url(#clipPath2)"/>
    </g>
    <g fill="rgb(255,204,0)" text-rendering="geometricPrecision" shape-rendering="geometricPrecision" transform="matrix(1,0,0,1,-227,9)" stroke="rgb(255,204,0)">
      <rect x="297" width="186" height="30" y="527.4219" clip-path="url(#clipPath2)" stroke="none"/>
    </g>
    <g text-rendering="geometricPrecision" stroke-miterlimit="1.45" shape-rendering="geometricPrecision" font-family="sans-serif" transform="matrix(1,0,0,1,-227,9)" stroke-linecap="butt">
      <text x="373.7988" xml:space="preserve" y="546.5762" clip-path="url(#clipPath2)" stroke="none">File 1</text>
      <rect fill="none" x="297" width="186" height="30" y="527.4219" clip-path="url(#clipPath2)"/>
    </g>
    <g fill="rgb(255,204,0)" text-rendering="geometricPrecision" shape-rendering="geometricPrecision" transform="matrix(1,0,0,1,-227,9)" stroke="rgb(255,204,0)">
      <rect x="297" width="186" height="30" y="557.4219" clip-path="url(#clipPath2)" stroke="none"/>
    </g>
    <g text-rendering="geometricPrecision" stroke-miterlimit="1.45" shape-rendering="geometricPrecision" font-family="sans-serif" transform="matrix(1,0,0,1,-227,9)" stroke-linecap="butt">
      <text x="373.7988" xml:space="preserve" y="576.5762" clip-path="url(#clipPath2)" stroke="none">File 2</text>
      <rect fill="none" x="297" width="186" height="30" y="557.4219" clip-path="url(#clipPath2)"/>
    </g>
    <g fill="rgb(255,204,0)" text-rendering="geometricPrecision" shape-rendering="geometricPrecision" transform="matrix(1,0,0,1,-227,9)" stroke="rgb(255,204,0)">
      <rect x="297" width="186" height="46" y="587.4219" clip-path="url(#clipPath2)" stroke="none"/>
    </g>
    <g text-rendering="geometricPrecision" stroke-miterlimit="1.45" shape-rendering="geometricPrecision" font-family="sans-serif" transform="matrix(1,0,0,1,-227,9)" stroke-linecap="butt">
      <text x="384.2783" xml:space="preserve" y="614.5762" clip-path="url(#clipPath2)" stroke="none">...</text>
      <rect fill="none" x="297" width="186" height="46" y="587.4219" clip-path="url(#clipPath2)"/>
    </g>
    <g text-rendering="geometricPrecision" stroke-miterlimit="1.45" shape-rendering="geometricPrecision" transform="matrix(1,0,0,1,-227,9)" stroke-linecap="butt">
      <path fill="none" d="M289.6964 413.4219 L284.5964 413.4219 L284.5964 497.4219 L289.6964 497.4219" clip-path="url(#clipPath2)"/>
    </g>
    <g text-rendering="geometricPrecision" stroke-miterlimit="1.45" shape-rendering="geometricPrecision" transform="matrix(1,0,0,1,-227,9)" stroke-linecap="butt">
      <path fill="none" d="M483 488.4219 L499.7964 488.4219 L499.7964 512.4219 L491 512.4219" clip-path="url(#clipPath2)"/>
      <path d="M483 512.4219 L495 517.4219 L492 512.4219 L495 507.4219 Z" clip-path="url(#clipPath2)" stroke="none"/>
      <path fill="none" d="M483 470.4219 L517.3964 470.4219 L517.3964 542.4219 L491 542.4219" clip-path="url(#clipPath2)"/>
      <path d="M483 542.4219 L495 547.4219 L492 542.4219 L495 537.4219 Z" clip-path="url(#clipPath2)" stroke="none"/>
      <path fill="none" d="M483 452.4219 L540.5964 452.4219 L540.5964 572.4219 L491 572.4219" clip-path="url(#clipPath2)"/>
      <path d="M483 572.4219 L495 577.4219 L492 572.4219 L495 567.4219 Z" clip-path="url(#clipPath2)" stroke="none"/>
      <path fill="none" d="M297 162 L253.3964 162 L253.3964 455.4219 L276.6134 455.4219" clip-path="url(#clipPath2)"/>
      <path d="M284.6134 455.4219 L272.6134 450.4219 L275.6134 455.4219 L272.6134 460.4219 Z" clip-path="url(#clipPath2)" stroke="none"/>
    </g>
    <g fill="rgb(245,245,245)" text-rendering="geometricPrecision" shape-rendering="geometricPrecision" transform="matrix(1,0,0,1,-227,9)" stroke="rgb(245,245,245)">
      <rect x="269.5964" y="664.4609" clip-path="url(#clipPath2)" width="239.6036" rx="4" ry="4" height="276.3025" stroke="none"/>
      <rect x="269.5964" y="664.4609" clip-path="url(#clipPath2)" fill="rgb(235,235,235)" width="239.6036" height="21.4609" stroke="none"/>
    </g>
    <g font-size="15px" stroke-linecap="butt" transform="matrix(1,0,0,1,-227,9)" text-rendering="geometricPrecision" font-family="sans-serif" shape-rendering="geometricPrecision" stroke-miterlimit="1.45">
      <text x="454.8392" xml:space="preserve" y="680.3843" clip-path="url(#clipPath2)" stroke="none">RomFS</text>
      <rect x="269.5964" y="664.4609" clip-path="url(#clipPath2)" fill="none" width="239.6036" stroke-dasharray="6,2" rx="4" ry="4" height="276.3025"/>
    </g>
    <g fill="rgb(255,204,0)" text-rendering="geometricPrecision" shape-rendering="geometricPrecision" transform="matrix(1,0,0,1,-227,9)" stroke="rgb(255,204,0)">
      <rect x="297" width="186" height="23.6" y="700.9219" clip-path="url(#clipPath2)" stroke="none"/>
    </g>
    <g text-rendering="geometricPrecision" stroke-miterlimit="1.45" shape-rendering="geometricPrecision" font-family="sans-serif" transform="matrix(1,0,0,1,-227,9)" stroke-linecap="butt">
      <text x="368.1533" xml:space="preserve" y="716.8762" clip-path="url(#clipPath2)" stroke="none">Header</text>
      <rect fill="none" x="297" width="186" height="23.6" y="700.9219" clip-path="url(#clipPath2)"/>
    </g>
    <g fill="rgb(255,255,153)" text-rendering="geometricPrecision" shape-rendering="geometricPrecision" transform="matrix(1,0,0,1,-227,9)" stroke="rgb(255,255,153)">
      <rect x="297" width="186" height="18" y="724.5219" clip-path="url(#clipPath2)" stroke="none"/>
    </g>
    <g text-rendering="geometricPrecision" stroke-miterlimit="1.45" shape-rendering="geometricPrecision" font-family="sans-serif" transform="matrix(1,0,0,1,-227,9)" stroke-linecap="butt">
      <text x="358.6523" xml:space="preserve" y="737.6761" clip-path="url(#clipPath2)" stroke="none">Main Hash</text>
      <rect fill="none" x="297" width="186" height="18" y="724.5219" clip-path="url(#clipPath2)"/>
    </g>
    <g fill="rgb(153,153,153)" text-rendering="geometricPrecision" shape-rendering="geometricPrecision" transform="matrix(1,0,0,1,-227,9)" stroke="rgb(153,153,153)">
      <rect x="297" width="186" height="11" y="742.5219" clip-path="url(#clipPath2)" stroke="none"/>
    </g>
    <g text-rendering="geometricPrecision" stroke-miterlimit="1.45" shape-rendering="geometricPrecision" transform="matrix(1,0,0,1,-227,9)" stroke-linecap="butt">
      <rect fill="none" x="297" width="186" height="11" y="742.5219" clip-path="url(#clipPath2)"/>
    </g>
    <g fill="rgb(255,204,0)" text-rendering="geometricPrecision" shape-rendering="geometricPrecision" transform="matrix(1,0,0,1,-227,9)" stroke="rgb(255,204,0)">
      <rect x="297" width="186" height="60.0416" y="753.5219" clip-path="url(#clipPath2)" stroke="none"/>
    </g>
    <g text-rendering="geometricPrecision" stroke-miterlimit="1.45" shape-rendering="geometricPrecision" font-family="sans-serif" transform="matrix(1,0,0,1,-227,9)" stroke-linecap="butt">
      <text x="339.0732" xml:space="preserve" y="787.697" clip-path="url(#clipPath2)" stroke="none">RomFS Data (L3)</text>
      <rect fill="none" x="297" width="186" height="60.0416" y="753.5219" clip-path="url(#clipPath2)"/>
    </g>
    <g fill="rgb(153,153,153)" text-rendering="geometricPrecision" shape-rendering="geometricPrecision" transform="matrix(1,0,0,1,-227,9)" stroke="rgb(153,153,153)">
      <rect x="297" width="186" height="11" y="813.5635" clip-path="url(#clipPath2)" stroke="none"/>
    </g>
    <g text-rendering="geometricPrecision" stroke-miterlimit="1.45" shape-rendering="geometricPrecision" transform="matrix(1,0,0,1,-227,9)" stroke-linecap="butt">
      <rect fill="none" x="297" width="186" height="11" y="813.5635" clip-path="url(#clipPath2)"/>
    </g>
    <g fill="rgb(255,255,153)" text-rendering="geometricPrecision" shape-rendering="geometricPrecision" transform="matrix(1,0,0,1,-227,9)" stroke="rgb(255,255,153)">
      <rect x="297" width="186" height="39.6" y="824.5635" clip-path="url(#clipPath2)" stroke="none"/>
    </g>
    <g text-rendering="geometricPrecision" stroke-miterlimit="1.45" shape-rendering="geometricPrecision" font-family="sans-serif" transform="matrix(1,0,0,1,-227,9)" stroke-linecap="butt">
      <text x="348.7383" xml:space="preserve" y="848.5178" clip-path="url(#clipPath2)" stroke="none">Hash List (L1)</text>
      <rect fill="none" x="297" width="186" height="39.6" y="824.5635" clip-path="url(#clipPath2)"/>
    </g>
    <g fill="rgb(153,153,153)" text-rendering="geometricPrecision" shape-rendering="geometricPrecision" transform="matrix(1,0,0,1,-227,9)" stroke="rgb(153,153,153)">
      <rect x="297" width="186" height="11" y="864.1635" clip-path="url(#clipPath2)" stroke="none"/>
    </g>
    <g text-rendering="geometricPrecision" stroke-miterlimit="1.45" shape-rendering="geometricPrecision" transform="matrix(1,0,0,1,-227,9)" stroke-linecap="butt">
      <rect fill="none" x="297" width="186" height="11" y="864.1635" clip-path="url(#clipPath2)"/>
    </g>
    <g fill="rgb(255,255,153)" text-rendering="geometricPrecision" shape-rendering="geometricPrecision" transform="matrix(1,0,0,1,-227,9)" stroke="rgb(255,255,153)">
      <rect x="297" width="186" height="39.6" y="875.1635" clip-path="url(#clipPath2)" stroke="none"/>
    </g>
    <g text-rendering="geometricPrecision" stroke-miterlimit="1.45" shape-rendering="geometricPrecision" font-family="sans-serif" transform="matrix(1,0,0,1,-227,9)" stroke-linecap="butt">
      <text x="348.7383" xml:space="preserve" y="899.1178" clip-path="url(#clipPath2)" stroke="none">Hash List (L2)</text>
      <rect fill="none" x="297" width="186" height="39.6" y="875.1635" clip-path="url(#clipPath2)"/>
    </g>
    <g fill="rgb(153,153,153)" text-rendering="geometricPrecision" shape-rendering="geometricPrecision" transform="matrix(1,0,0,1,-227,9)" stroke="rgb(153,153,153)">
      <rect x="297" width="186" height="11" y="914.7635" clip-path="url(#clipPath2)" stroke="none"/>
    </g>
    <g text-rendering="geometricPrecision" stroke-miterlimit="1.45" shape-rendering="geometricPrecision" transform="matrix(1,0,0,1,-227,9)" stroke-linecap="butt">
      <rect fill="none" x="297" width="186" height="11" y="914.7635" clip-path="url(#clipPath2)"/>
    </g>
    <g text-rendering="geometricPrecision" stroke-miterlimit="1.45" shape-rendering="geometricPrecision" transform="matrix(1,0,0,1,-227,9)" stroke-linecap="butt">
      <path fill="none" d="M489.1 753.5219 L494.2 753.5219 L494.2 824.5635 L489.1 824.5635" clip-path="url(#clipPath2)"/>
    </g>
    <g text-rendering="geometricPrecision" stroke-miterlimit="1.45" shape-rendering="geometricPrecision" transform="matrix(1,0,0,1,-227,9)" stroke-linecap="butt">
      <path fill="none" d="M289.6964 875.1635 L284.5964 875.1635 L284.5964 925.7635 L289.6964 925.7635" clip-path="url(#clipPath2)"/>
    </g>
    <g text-rendering="geometricPrecision" stroke-miterlimit="1.45" shape-rendering="geometricPrecision" transform="matrix(1,0,0,1,-227,9)" stroke-linecap="butt">
      <path fill="none" d="M489.1 824.5635 L494.2 824.5635 L494.2 875.1635 L489.1 875.1635" clip-path="url(#clipPath2)"/>
    </g>
    <g text-rendering="geometricPrecision" stroke-miterlimit="1.45" shape-rendering="geometricPrecision" transform="matrix(1,0,0,1,-227,9)" stroke-linecap="butt">
      <path fill="none" d="M289.6964 700.9219 L284.5964 700.9219 L284.5964 753.5219 L289.6964 753.5219" clip-path="url(#clipPath2)"/>
    </g>
    <g text-rendering="geometricPrecision" stroke-miterlimit="1.45" shape-rendering="geometricPrecision" transform="matrix(1,0,0,1,-227,9)" stroke-linecap="butt">
      <path fill="none" d="M483 894.9635 L543.4764 894.9635 L543.4764 789.0427 L502.179 789.0427" clip-path="url(#clipPath2)"/>
      <path d="M494.179 789.0427 L506.179 794.0427 L503.179 789.0427 L506.179 784.0427 Z" clip-path="url(#clipPath2)" stroke="none"/>
      <path fill="none" d="M297 844.3635 L261.8764 844.3635 L261.8764 900.4635 L276.5734 900.4635" clip-path="url(#clipPath2)"/>
      <path d="M284.5734 900.4635 L272.5734 895.4635 L275.5734 900.4635 L272.5734 905.4635 Z" clip-path="url(#clipPath2)" stroke="none"/>
      <path fill="none" d="M483 733.5219 L521.0764 733.5219 L521.0764 849.8635 L502.1602 849.8635" clip-path="url(#clipPath2)"/>
      <path d="M494.1602 849.8635 L506.1602 854.8635 L503.1602 849.8635 L506.1602 844.8635 Z" clip-path="url(#clipPath2)" stroke="none"/>
      <path fill="none" d="M297 180 L264.5964 180 L264.5964 727.2219 L276.5991 727.2219" clip-path="url(#clipPath2)"/>
      <path d="M284.5991 727.2219 L272.5991 722.2219 L275.5991 727.2219 L272.5991 732.2219 Z" clip-path="url(#clipPath2)" stroke="none"/>
    </g>
    <g fill="rgb(245,245,245)" text-rendering="geometricPrecision" shape-rendering="geometricPrecision" transform="matrix(1,0,0,1,-227,9)" stroke="rgb(245,245,245)">
      <rect x="530.3964" y="156.6598" clip-path="url(#clipPath2)" width="216" rx="4" ry="4" height="69.4609" stroke="none"/>
      <rect x="530.3964" y="156.6598" clip-path="url(#clipPath2)" fill="rgb(235,235,235)" width="216" height="21.4609" stroke="none"/>
    </g>
    <g font-size="15px" stroke-linecap="butt" transform="matrix(1,0,0,1,-227,9)" text-rendering="geometricPrecision" font-family="sans-serif" shape-rendering="geometricPrecision" stroke-miterlimit="1.45">
      <text x="679.914" xml:space="preserve" y="172.5832" clip-path="url(#clipPath2)" stroke="none">Bootrom</text>
      <rect x="530.3964" y="156.6598" clip-path="url(#clipPath2)" fill="none" width="216" stroke-dasharray="6,2" rx="4" ry="4" height="69.4609"/>
    </g>
    <g fill="rgb(153,204,255)" text-rendering="geometricPrecision" shape-rendering="geometricPrecision" transform="matrix(1,0,0,1,-227,9)" stroke="rgb(153,204,255)">
      <rect x="545.3964" width="186" height="18" y="193.1208" clip-path="url(#clipPath2)" stroke="none"/>
    </g>
    <g text-rendering="geometricPrecision" stroke-miterlimit="1.45" shape-rendering="geometricPrecision" font-family="sans-serif" transform="matrix(1,0,0,1,-227,9)" stroke-linecap="butt">
      <text x="576.3544" xml:space="preserve" y="206.2751" clip-path="url(#clipPath2)" stroke="none">ExHeader Public Key</text>
      <rect fill="none" x="545.3964" width="186" height="18" y="193.1208" clip-path="url(#clipPath2)"/>
      <path fill="none" d="M638.3964 211.1208 L638.3964 316.6317 L551.9964 316.6317" clip-path="url(#clipPath2)"/>
      <path d="M543.9964 316.6317 L555.9964 321.6317 L552.9964 316.6317 L555.9964 311.6317 Z" clip-path="url(#clipPath2)" stroke="none"/>
    </g>
  </g>
</svg>
