<?xml version="1.0" encoding="UTF-8"?><svg xmlns="http://www.w3.org/2000/svg" xmlns:xlink="http://www.w3.org/1999/xlink" fill-opacity="1" color-rendering="auto" color-interpolation="auto" text-rendering="auto" stroke="black" stroke-linecap="square" width="769" stroke-miterlimit="10" shape-rendering="auto" stroke-opacity="1" fill="black" stroke-dasharray="none" font-weight="normal" stroke-width="1" height="516" font-family="'Dialog'" font-style="normal" stroke-linejoin="miter" font-size="12px" stroke-dashoffset="0" image-rendering="auto">
  <!--Generated by ySVG 2.5-->
  <defs id="genericDefs"/>
  <g>
    <defs id="defs1">
      <clipPath clipPathUnits="userSpaceOnUse" id="clipPath1">
        <path d="M0 0 L769 0 L769 516 L0 516 L0 0 Z"/>
      </clipPath>
      <clipPath clipPathUnits="userSpaceOnUse" id="clipPath2">
        <path d="M255 194 L1024 194 L1024 710 L255 710 L255 194 Z"/>
      </clipPath>
    </defs>
    <g fill="white" text-rendering="geometricPrecision" shape-rendering="geometricPrecision" transform="translate(-255,-194)" stroke="white">
      <rect x="255" width="769" height="516" y="194" clip-path="url(#clipPath2)" stroke="none"/>
    </g>
    <g fill="rgb(255,204,0)" text-rendering="geometricPrecision" shape-rendering="geometricPrecision" transform="matrix(1,0,0,1,-255,-194)" stroke="rgb(255,204,0)">
      <rect x="568" width="111" height="47" y="238" clip-path="url(#clipPath2)" stroke="none"/>
    </g>
    <g text-rendering="geometricPrecision" stroke-miterlimit="1.45" shape-rendering="geometricPrecision" transform="matrix(1,0,0,1,-255,-194)" stroke-linecap="butt">
      <rect fill="none" x="568" width="111" height="47" y="238" clip-path="url(#clipPath2)"/>
      <text x="584.0693" xml:space="preserve" y="265.6543" clip-path="url(#clipPath2)" font-family="sans-serif" stroke="none">NotInitialized</text>
    </g>
    <g fill="rgb(255,204,0)" text-rendering="geometricPrecision" shape-rendering="geometricPrecision" transform="matrix(1,0,0,1,-255,-194)" stroke="rgb(255,204,0)">
      <rect x="568" width="111" height="47" y="336" clip-path="url(#clipPath2)" stroke="none"/>
    </g>
    <g text-rendering="geometricPrecision" stroke-miterlimit="1.45" shape-rendering="geometricPrecision" transform="matrix(1,0,0,1,-255,-194)" stroke-linecap="butt">
      <rect fill="none" x="568" width="111" height="47" y="336" clip-path="url(#clipPath2)"/>
      <text x="585.3203" xml:space="preserve" y="363.6543" clip-path="url(#clipPath2)" font-family="sans-serif" stroke="none">NotScanning</text>
    </g>
    <g fill="rgb(255,204,0)" text-rendering="geometricPrecision" shape-rendering="geometricPrecision" transform="matrix(1,0,0,1,-255,-194)" stroke="rgb(255,204,0)">
      <rect x="568" width="111" height="47" y="434" clip-path="url(#clipPath2)" stroke="none"/>
    </g>
    <g text-rendering="geometricPrecision" stroke-miterlimit="1.45" shape-rendering="geometricPrecision" transform="matrix(1,0,0,1,-255,-194)" stroke-linecap="butt">
      <rect fill="none" x="568" width="111" height="47" y="434" clip-path="url(#clipPath2)"/>
      <text x="595.832" xml:space="preserve" y="461.6543" clip-path="url(#clipPath2)" font-family="sans-serif" stroke="none">Scanning</text>
    </g>
    <g fill="rgb(255,204,0)" text-rendering="geometricPrecision" shape-rendering="geometricPrecision" transform="matrix(1,0,0,1,-255,-194)" stroke="rgb(255,204,0)">
      <rect x="568" width="111" height="47" y="544" clip-path="url(#clipPath2)" stroke="none"/>
    </g>
    <g text-rendering="geometricPrecision" stroke-miterlimit="1.45" shape-rendering="geometricPrecision" transform="matrix(1,0,0,1,-255,-194)" stroke-linecap="butt">
      <rect fill="none" x="568" width="111" height="47" y="544" clip-path="url(#clipPath2)"/>
      <text x="587.6289" xml:space="preserve" y="571.6543" clip-path="url(#clipPath2)" font-family="sans-serif" stroke="none">TagInRange</text>
    </g>
    <g fill="rgb(255,204,0)" text-rendering="geometricPrecision" shape-rendering="geometricPrecision" transform="matrix(1,0,0,1,-255,-194)" stroke="rgb(255,204,0)">
      <rect x="568" width="111" height="47" y="648" clip-path="url(#clipPath2)" stroke="none"/>
    </g>
    <g text-rendering="geometricPrecision" stroke-miterlimit="1.45" shape-rendering="geometricPrecision" transform="matrix(1,0,0,1,-255,-194)" stroke-linecap="butt">
      <rect fill="none" x="568" width="111" height="47" y="648" clip-path="url(#clipPath2)"/>
      <text x="576.54" xml:space="preserve" y="675.6543" clip-path="url(#clipPath2)" font-family="sans-serif" stroke="none">TagOutofRange</text>
    </g>
    <g fill="rgb(255,204,0)" text-rendering="geometricPrecision" shape-rendering="geometricPrecision" transform="matrix(1,0,0,1,-255,-194)" stroke="rgb(255,204,0)">
      <rect x="270" width="111" height="47" y="544" clip-path="url(#clipPath2)" stroke="none"/>
    </g>
    <g text-rendering="geometricPrecision" stroke-miterlimit="1.45" shape-rendering="geometricPrecision" transform="matrix(1,0,0,1,-255,-194)" stroke-linecap="butt">
      <rect fill="none" x="270" width="111" height="47" y="544" clip-path="url(#clipPath2)"/>
      <text x="278.0244" xml:space="preserve" y="571.6543" clip-path="url(#clipPath2)" font-family="sans-serif" stroke="none">TagDataLoaded</text>
    </g>
    <g fill="rgb(255,204,0)" text-rendering="geometricPrecision" shape-rendering="geometricPrecision" transform="matrix(1,0,0,1,-255,-194)" stroke="rgb(255,204,0)">
      <rect x="866" width="111" height="47" y="544" clip-path="url(#clipPath2)" stroke="none"/>
    </g>
    <g text-rendering="geometricPrecision" stroke-miterlimit="1.45" shape-rendering="geometricPrecision" transform="matrix(1,0,0,1,-255,-194)" stroke-linecap="butt">
      <rect fill="none" x="866" width="111" height="47" y="544" clip-path="url(#clipPath2)"/>
      <text x="889.8301" xml:space="preserve" y="571.6543" clip-path="url(#clipPath2)" font-family="sans-serif" stroke="none">Unknown6</text>
    </g>
    <g fill="white" text-rendering="geometricPrecision" shape-rendering="geometricPrecision" transform="matrix(1,0,0,1,-255,-194)" stroke="white">
      <rect x="772" width="106" height="30" y="246.5" clip-path="url(#clipPath2)" stroke="none"/>
    </g>
    <g text-rendering="geometricPrecision" stroke-miterlimit="1.45" shape-rendering="geometricPrecision" transform="matrix(1,0,0,1,-255,-194)" stroke-linecap="butt">
      <rect fill="none" x="772" width="106" height="30" y="246.5" clip-path="url(#clipPath2)"/>
      <text x="778.5439" xml:space="preserve" y="265.6543" clip-path="url(#clipPath2)" font-family="sans-serif" stroke="none">Any other state</text>
      <path fill="none" d="M618.8969 285 L614 310 L617.4821 328.1434" clip-path="url(#clipPath2)"/>
      <path d="M618.9899 336 L621.6385 323.2726 L617.2936 327.1613 L611.8177 325.1575 Z" clip-path="url(#clipPath2)" stroke="none"/>
      <text x="559.8395" xml:space="preserve" y="325.7327" clip-path="url(#clipPath2)" font-family="sans-serif" stroke="none">Initialize</text>
      <path fill="none" d="M627.5353 336 L632 310 L628.9996 292.8799" clip-path="url(#clipPath2)"/>
      <path d="M627.6185 285 L624.7651 297.683 L629.1722 293.8649 L634.6151 295.9567 Z" clip-path="url(#clipPath2)" stroke="none"/>
      <text x="631.6112" xml:space="preserve" y="319.2315" clip-path="url(#clipPath2)" font-family="sans-serif" stroke="none">Shutdown</text>
      <path fill="none" d="M623.5 383 L623.5 426" clip-path="url(#clipPath2)"/>
      <path d="M623.5 434 L628.5 422 L623.5 425 L618.5 422 Z" clip-path="url(#clipPath2)" stroke="none"/>
      <text x="570.0244" xml:space="preserve" y="412.6543" clip-path="url(#clipPath2)" font-family="sans-serif" stroke="none">StartTagScanning</text>
      <path fill="none" d="M679 447.3188 L847 416.5 L847 359.5 L687 359.5" clip-path="url(#clipPath2)"/>
      <path d="M679 359.5 L691 364.5 L688 359.5 L691 354.5 Z" clip-path="url(#clipPath2)" stroke="none"/>
      <text x="712.541" xml:space="preserve" y="363.6543" clip-path="url(#clipPath2)" font-family="sans-serif" stroke="none">StopTagScanning</text>
      <path fill="none" d="M623.5 481 L623.5 536" clip-path="url(#clipPath2)" stroke="red"/>
      <path fill="red" d="M623.5 544 L628.5 532 L623.5 535 L618.5 532 Z" clip-path="url(#clipPath2)" stroke="none"/>
      <text x="552.0625" xml:space="preserve" y="516.6543" clip-path="url(#clipPath2)" font-family="sans-serif" stroke="none">detect amiibo</text>
      <path fill="none" d="M665.3062 544 L869 429.5 L869 359.5 L687 359.5" clip-path="url(#clipPath2)"/>
      <path d="M679 359.5 L691 364.5 L688 359.5 L691 354.5 Z" clip-path="url(#clipPath2)" stroke="none"/>
      <path fill="none" d="M628.4587 591 L635 622 L630.77 640.2075" clip-path="url(#clipPath2)" stroke="red"/>
      <path fill="red" d="M628.9596 648 L636.5454 637.4427 L630.9963 639.2335 L626.8049 635.1798 Z" clip-path="url(#clipPath2)" stroke="none"/>
      <path fill="none" d="M679 657.3082 L733 643.5 L733 474.5 L686.9053 467.3438" clip-path="url(#clipPath2)"/>
      <path d="M679 466.1164 L690.0909 472.8982 L687.8934 467.4972 L691.625 463.0166 Z" clip-path="url(#clipPath2)" stroke="none"/>
      <text x="679.5244" xml:space="preserve" y="612.9066" clip-path="url(#clipPath2)" font-family="sans-serif" stroke="none">StartTagScanning</text>
      <path fill="none" d="M679 671.428 L1009 671 L1009 359.5 L687.0377 359.5" clip-path="url(#clipPath2)"/>
      <path d="M679.0377 359.5 L691.0377 364.5 L688.0377 359.5 L691.0377 354.5 Z" clip-path="url(#clipPath2)" stroke="none"/>
      <path fill="none" d="M615.9709 648 L607 620 L613.7157 598.632" clip-path="url(#clipPath2)" stroke="red"/>
      <path fill="red" d="M616.1143 591 L607.7465 600.9489 L613.4159 599.5859 L617.2864 603.947 Z" clip-path="url(#clipPath2)" stroke="none"/>
      <text x="567.8077" xml:space="preserve" y="631.1621" clip-path="url(#clipPath2)" font-family="sans-serif" stroke="none">detect amiibo</text>
      <path fill="none" d="M568 567.5 L389 567.5" clip-path="url(#clipPath2)"/>
      <path d="M381 567.5 L393 572.5 L390 567.5 L393 562.5 Z" clip-path="url(#clipPath2)" stroke="none"/>
      <text x="424.9121" xml:space="preserve" y="571.6543" clip-path="url(#clipPath2)" font-family="sans-serif" stroke="none">LoadAmiiboData</text>
      <path fill="none" d="M325.5 544 L325.5 209 L904 209 L904 359.5 L687.0309 359.5" clip-path="url(#clipPath2)"/>
      <path d="M679.0309 359.5 L691.0309 364.5 L688.0309 359.5 L691.0309 354.5 Z" clip-path="url(#clipPath2)" stroke="none"/>
      <path fill="none" d="M381 558.8218 L463 546 L505 546 L560.1285 556.0022" clip-path="url(#clipPath2)"/>
      <path d="M568 557.4304 L557.0854 550.3684 L559.1446 555.8237 L555.3002 560.2078 Z" clip-path="url(#clipPath2)" stroke="none"/>
      <text x="425.3506" xml:space="preserve" y="550.1543" clip-path="url(#clipPath2)" font-family="sans-serif" stroke="none">ResetTagScanState</text>
      <path fill="none" d="M679 567.5 L825 567.5 L858 567.5" clip-path="url(#clipPath2)"/>
      <path d="M866 567.5 L854 562.5 L857 567.5 L854 572.5 Z" clip-path="url(#clipPath2)" stroke="none"/>
      <text x="797.1475" xml:space="preserve" y="571.6543" clip-path="url(#clipPath2)" font-family="sans-serif" stroke="none">Unknown</text>
      <path fill="none" d="M921.5 544 L921.5 359.5 L687.0272 359.5" clip-path="url(#clipPath2)"/>
      <path d="M679.0272 359.5 L691.0272 364.5 L688.0272 359.5 L691.0272 354.5 Z" clip-path="url(#clipPath2)" stroke="none"/>
      <path fill="none" d="M866 556.4937 L803 544 L746 544 L686.8568 555.3458" clip-path="url(#clipPath2)"/>
      <path d="M679 556.8531 L691.7271 559.5026 L687.8388 555.1574 L689.8431 549.6818 Z" clip-path="url(#clipPath2)" stroke="none"/>
      <text x="744.3506" xml:space="preserve" y="548.1543" clip-path="url(#clipPath2)" font-family="sans-serif" stroke="none">ResetTagScanState</text>
      <path fill="none" d="M772 261.5 L687 261.5" clip-path="url(#clipPath2)"/>
      <path d="M679 261.5 L691 266.5 L688 261.5 L691 256.5 Z" clip-path="url(#clipPath2)" stroke="none"/>
      <text x="705.0879" xml:space="preserve" y="265.6543" clip-path="url(#clipPath2)" font-family="sans-serif" stroke="none">Shutdown</text>
    </g>
  </g>
</svg>
